<?xml version="1.0" encoding="iso-8859-1"?>
<!-- Uploaded to: SVG Repo, www.svgrepo.com, Generator: SVG Repo Mixer Tools -->
<!DOCTYPE svg PUBLIC "-//W3C//DTD SVG 1.1//EN" "http://www.w3.org/Graphics/SVG/1.1/DTD/svg11.dtd">
<svg fill="#000000" height="800px" width="800px" version="1.1" id="Capa_1" xmlns="http://www.w3.org/2000/svg" xmlns:xlink="http://www.w3.org/1999/xlink" 
	 viewBox="0 0 380 380" xml:space="preserve">
<path d="M354.27,25.73c-34.306-34.306-90.124-34.306-124.43,0l-58.738,58.737c-16.452,16.452-25.384,38.432-25.731,60.905
	c-22.473,0.347-44.453,9.278-60.905,25.73l-58.738,58.738c-34.305,34.306-34.305,90.124,0,124.431
	c34.306,34.305,90.125,34.305,124.431,0l58.738-58.738c16.452-16.451,25.385-38.432,25.731-60.904
	c22.474-0.347,44.453-9.279,60.905-25.731l58.737-58.737C388.577,115.855,388.577,60.035,354.27,25.73z M324.727,120.617
	l-58.737,58.737c-12.865,12.864-32.179,16.97-49.205,10.455c-7.698-2.945-16.407-1.089-22.236,4.74
	c-5.829,5.829-7.685,14.537-4.74,22.235c6.515,17.026,2.409,36.341-10.455,49.205l-58.738,58.737
	c-18.016,18.016-47.329,18.016-65.345,0c-18.015-18.015-18.015-47.328,0-65.344l58.738-58.737
	c12.865-12.864,32.179-16.97,49.205-10.456c7.698,2.946,16.406,1.089,22.235-4.739c5.829-5.829,7.686-14.538,4.74-22.235
	c-6.515-17.026-2.409-36.341,10.455-49.206l58.737-58.737c18.016-18.016,47.33-18.016,65.344,0
	C342.743,73.287,342.743,102.602,324.727,120.617z"/>
</svg>